<?xml version="1.0" encoding="UTF-8"?>
<!DOCTYPE svg PUBLIC "-//W3C//DTD SVG 1.1//EN" "http://www.w3.org/Graphics/SVG/1.1/DTD/svg11.dtd">
<!-- Creator: CorelDRAW X7 -->
<svg xmlns="http://www.w3.org/2000/svg" xml:space="preserve" width="1280mm" height="853mm" version="1.1" style="shape-rendering:geometricPrecision; text-rendering:geometricPrecision; image-rendering:optimizeQuality; fill-rule:evenodd; clip-rule:evenodd"
viewBox="0 0 128000 85300"
 xmlns:xlink="http://www.w3.org/1999/xlink">
 <defs>
  <style type="text/css">
   <![CDATA[
    .fil2 {fill:none}
    .fil1 {fill:url(#id1)}
    .fil0 {fill:url(#id2)}
    .fil3 {fill:url(#id3)}
   ]]>
  </style>
    <clipPath id="id0">
     <path d="M0 0l128000 0 0 85300 -128000 0 0 -85300z"/>
    </clipPath>
  <linearGradient id="id1" gradientUnits="userSpaceOnUse" x1="23576.9" y1="-31991.8" x2="-16196.3" y2="22181.7">
   <stop offset="0" style="stop-opacity:1; stop-color:#455BA6"/>
   <stop offset="1" style="stop-opacity:1; stop-color:#69BAD6"/>
  </linearGradient>
  <linearGradient id="id2" gradientUnits="userSpaceOnUse" xlink:href="#id1" x1="88118.2" y1="14900" x2="120571" y2="62859">
  </linearGradient>
  <linearGradient id="id3" gradientUnits="userSpaceOnUse" xlink:href="#id1" x1="2628.31" y1="49585.6" x2="24482.9" y2="69487.7">
  </linearGradient>
 </defs>
 <g id="Layer_x0020_1">
  <metadata id="CorelCorpID_0Corel-Layer"/>
  <g id="_703054832">
   <g>
   </g>
   <g style="clip-path:url(#id0)">
    <g id="_703054808">
     <path class="fil0" d="M96559 16024c-764,12324 7441,23079 18907,25970 3127,789 5049,3861 4495,7038 -11,63 -22,127 -32,192 -511,3172 -3381,5393 -6581,5106 -16907,-1519 -32659,11705 -32659,29904 0,357 9,712 21,1066l47290 0 0 -92034c-2123,-551 -4353,-833 -6655,-805 -13083,161 -23977,10504 -24786,23563z"/>
     <path class="fil1" d="M39813 -32510l0 0c1008,1008 1008,2642 0,3651l-26228 26227c-1008,1008 -1008,2643 0,3651l0 0c1008,1009 2643,1009 3651,0l20147 -20147c1008,-1007 2643,-1008 3651,0l0 0c1008,1009 1008,2643 0,3652l-38933 38933 -36510 0 46442 -46443c1008,-1008 2642,-1008 3651,0l0 0c1009,1008 1009,2643 0,3651l-15684 15684c-1007,1008 -1008,2643 0,3651l0 0c1008,1008 2643,1008 3651,0l32511 -32510c1008,-1009 2643,-1009 3651,0z"/>
    </g>
   </g>
   <polygon class="fil2" points="0,0 128000,0 128000,85300 0,85300 "/>
   <path class="fil3" d="M19225 50239c1665,9620 -3854,18780 -12615,22043 -2390,890 -3636,3470 -2925,5919 14,49 28,98 42,148 676,2449 3122,3947 5613,3444 6289,-1268 12660,135 17771,3507l-27111 0 0 -51527c9375,177 17593,7034 19225,16466z"/>
  </g>
 </g>
</svg>
